<svg width="22" height="16" viewBox="0 0 22 16" fill="none" xmlns="http://www.w3.org/2000/svg">
<path d="M14 4.25V2.375C14 1.87772 13.8025 1.40081 13.4508 1.04917C13.0992 0.697544 12.6223 0.5 12.125 0.5H3.125C2.62772 0.5 2.15081 0.697544 1.79917 1.04917C1.44754 1.40081 1.25 1.87772 1.25 2.375V13.625C1.25 14.1223 1.44754 14.5992 1.79917 14.9508C2.15081 15.3025 2.62772 15.5 3.125 15.5H12.125C12.6223 15.5 13.0992 15.3025 13.4508 14.9508C13.8025 14.5992 14 14.1223 14 13.625V11.75M17 4.25L20.75 8M20.75 8L17 11.75M20.75 8H7.95312" stroke="black" stroke-linecap="round" stroke-linejoin="round"/>
</svg>
