<svg width="25" height="25" viewBox="0 0 25 25" fill="none" xmlns="http://www.w3.org/2000/svg">
<g clip-path="url(#clip0_17_2)">
<path d="M9.60274 22.7808C10.155 22.7808 10.6027 22.3331 10.6027 21.7808C10.6027 21.2285 10.155 20.7808 9.60274 20.7808C9.05046 20.7808 8.60274 21.2285 8.60274 21.7808C8.60274 22.3331 9.05046 22.7808 9.60274 22.7808Z" stroke="white" stroke-width="2" stroke-linecap="round" stroke-linejoin="round"/>
<path d="M20.6027 22.7808C21.155 22.7808 21.6027 22.3331 21.6027 21.7808C21.6027 21.2285 21.155 20.7808 20.6027 20.7808C20.0505 20.7808 19.6027 21.2285 19.6027 21.7808C19.6027 22.3331 20.0505 22.7808 20.6027 22.7808Z" stroke="white" stroke-width="2" stroke-linecap="round" stroke-linejoin="round"/>
<path d="M1.60274 1.78082H5.60274L8.28274 15.1708C8.37419 15.6312 8.62465 16.0448 8.99029 16.3391C9.35592 16.6335 9.81344 16.7898 10.2827 16.7808H20.0027C20.472 16.7898 20.9296 16.6335 21.2952 16.3391C21.6608 16.0448 21.9113 15.6312 22.0027 15.1708L23.6027 6.78082H6.60274" stroke="white" stroke-width="2" stroke-linecap="round" stroke-linejoin="round"/>
</g>
<defs>
<clipPath id="clip0_17_2">
<rect width="24" height="24" fill="white" transform="translate(0.602741 0.780823)"/>
</clipPath>
</defs>
</svg>
